<?xml version="1.0" encoding="UTF-8"?>
<svg id="Layer_1" xmlns="http://www.w3.org/2000/svg" version="1.1" viewBox="0 0 56 56">
  <!-- Generator: Adobe Illustrator 29.8.1, SVG Export Plug-In . SVG Version: 2.1.1 Build 2)  -->
  <defs>
    <style>
      .st0 {
        fill: #fff;
      }

      .st0, .st1 {
        fill-rule: evenodd;
      }

      .st1 {
        fill: #ff492c;
      }
    </style>
  </defs>
  <path class="st1" d="M56,28c0,15.5-12.5,28-28,28S0,43.5,0,28,12.5,0,28,0s28,12.5,28,28Z"/>
  <path class="st0" d="M19.1,28c0,5,4.1,9.1,9.2,9.1s4.4-.8,6-2.2l3.5,6c-2.6,1.9-5.9,3.1-9.4,3.1-8.8,0-16-7.2-16-16s7.2-16,16-16,2.1.1,3.1.3l-3.1,6.6c-5.1,0-9.2,4.1-9.2,9.1ZM40.1,21.4h-4.8c.1-.8.6-1.2,1.5-1.6l.9-.4c1.6-.8,2.4-1.7,2.4-3.2s-.4-1.7-1.1-2.2c-.7-.5-1.6-.8-2.6-.8s-1.5.2-2.2.6c-.6.4-1.1.9-1.4,1.6l1.4,1.4c.5-1.1,1.3-1.6,2.3-1.6s1.4.4,1.4,1.1-.3,1-1.3,1.5l-.6.3c-1.2.6-2.1,1.3-2.6,2.1-.5.8-.7,1.8-.7,3v.3h7.2v-2h0ZM39.5,25.7h-7.9l-4,6.9h7.9l4,6.9,4-6.9-4-6.9Z"/>
</svg>